<svg xmlns="http://www.w3.org/2000/svg" width="60" height="60" viewBox="0 0 60 60">
  <g fill="none" fill-rule="evenodd">
    <path fill="#FAFAFA" stroke="#EBEBEB" stroke-width="3" d="M50.6610897,57.7884544 C49.8595949,58.2170985 49.0800629,58.5 46.8722296,58.5 L13.1277704,58.5 C10.9199371,58.5 10.1404051,58.2170985 9.3389103,57.7884544 C8.42178927,57.2979727 7.70202731,56.5782107 7.21154561,55.6610897 C6.78290153,54.8595949 6.5,54.0800629 6.5,51.8722296 L6.5,8.1277704 C6.5,5.91993709 6.78290153,5.14040506 7.21154561,4.3389103 C7.70202731,3.42178927 8.42178927,2.70202731 9.3389103,2.21154561 C10.1404051,1.78290153 10.9199371,1.5 13.1277704,1.5 L46.8722296,1.5 C49.0800629,1.5 49.8595949,1.78290153 50.6610897,2.21154561 C51.5782107,2.70202731 52.2979727,3.42178927 52.7884544,4.3389103 C53.2170985,5.14040506 53.5,5.91993709 53.5,8.1277704 L53.5,51.8722296 C53.5,54.0800629 53.2170985,54.8595949 52.7884544,55.6610897 C52.2979727,56.5782107 51.5782107,57.2979727 50.6610897,57.7884544 Z"/>
    <path fill="#67C23A" d="M35.8428073,24.7012842 C36.2263622,24.9021939 36.534358,25.2221517 36.7205143,25.6130801 L43.6381585,40.1401328 C44.11305,41.137405 43.6895768,42.3308295 42.6923046,42.805721 C42.4236994,42.9336283 42.1299421,43 41.8324375,43 L27.3053847,43 C27.2297292,43 27.1550549,42.9957993 27.0815823,42.9876183 C27.0087084,42.9958193 26.9342737,43 26.8596073,43 L19.1403927,43 C18.0358232,43 17.1403927,42.1045695 17.1403927,41 C17.1403927,40.7077536 17.2044397,40.4190578 17.3280264,40.1542291 L21.1876337,31.883642 C21.6547401,30.8826998 22.8448287,30.4499403 23.8457709,30.9170467 C24.2714957,31.1157182 24.6136947,31.4579172 24.8123663,31.883642 L27.1723927,36.9425397 L33.1431302,25.5449332 C33.6556582,24.5664707 34.8643448,24.1887562 35.8428073,24.7012842 Z M24,19 C25.6568542,19 27,20.3431458 27,22 C27,23.6568542 25.6568542,25 24,25 C22.3431458,25 21,23.6568542 21,22 C21,20.3431458 22.3431458,19 24,19 Z"/>
  </g>
</svg>
